# xmcd CD database file
#
# Track frame offsets:
#	150
#	3009
#	5624
#	13517
#	21429
#	28237
#	35053
#	42276
#	49520
#	58739
#	67964
#	75956
#	83921
#	90933
#	97905
#	106950
#	115950
#	123356
#	130766
#	136792
#
# Disc length: 1901 seconds
#
# Revision: 0
# Processed by: cddbd v1.5.2PL0 Copyright (c) Steve Scherf et al.
# Submitted via: CDex 1.51
#
DISCID=ec076b14
DTITLE=de haske - Boogie for Winds
DYEAR=1998
DGENRE=Jazz
TTITLE0=Tuning Note B
TTITLE1=Tuning Note C
TTITLE2=Best Friend Boogie
TTITLE3=Best Friend Boogie
TTITLE4=Blue Note Boogie
TTITLE5=Blue Note Boogie
TTITLE6=Breakfast Boogie
TTITLE7=Breakfast Boogie
TTITLE8=Cool Boggie
TTITLE9=Cool Boggie
TTITLE10=Dino Boogie
TTITLE11=Dino Boogie
TTITLE12=Game Boy Boogie
TTITLE13=Game Boy Boogie
TTITLE14=Roller Blade Boogie
TTITLE15=Roller Blade Boogie
TTITLE16=Skate Board Boogie
TTITLE17=Skate Board Boogie
TTITLE18=Weekend Boogie
TTITLE19=Weekend Boogie
EXTD=YEAR: 1998
EXTT0=
EXTT1=
EXTT2=
EXTT3=
EXTT4=
EXTT5=
EXTT6=
EXTT7=
EXTT8=
EXTT9=
EXTT10=
EXTT11=
EXTT12=
EXTT13=
EXTT14=
EXTT15=
EXTT16=
EXTT17=
EXTT18=
EXTT19=
PLAYORDER=
